<?xml version="1.0" encoding="utf-8"?>
<!-- Generator: Adobe Illustrator 25.4.1, SVG Export Plug-In . SVG Version: 6.00 Build 0)  -->
<svg version="1.1" id="Layer_1" xmlns="http://www.w3.org/2000/svg" xmlns:xlink="http://www.w3.org/1999/xlink" x="0px" y="0px"
	 viewBox="0 0 340 113" style="enable-background:new 0 0 340 113;" xml:space="preserve">
<style type="text/css">
	.st0{fill:none;stroke:#979797;}
</style>
<desc>Created with Sketch.</desc>
<g id="product-design-online-stamp-demo-file">
	<path id="Rectangle" class="st0" d="M22.5,12.5h296c6.1,0,11,4.9,11,11v67c0,6.1-4.9,11-11,11h-296c-6.1,0-11-4.9-11-11v-67
		C11.5,17.4,16.4,12.5,22.5,12.5z"/>
	<path id="Rectangle_00000080910247202100551270000003228152609672403628_" class="st0" d="M24.5,18.5h292c3.9,0,7,3.1,7,7v63
		c0,3.9-3.1,7-7,7h-292c-3.9,0-7-3.1-7-7v-63C17.5,21.6,20.6,18.5,24.5,18.5z"/>
</g>
<g>
	<path d="M47.2,57.9c0-2.3,0-4.8,0.1-6.3h-0.1c-0.6,2.7-2,7.1-3.2,11.3h-2.4c-1-3.6-2.3-8.7-2.9-11.3h-0.1c0.1,1.6,0.2,4.3,0.2,6.6
		v4.8H36V49.6h4.3c1,3.5,2.2,7.8,2.6,9.8h0c0.3-1.7,1.8-6.4,2.9-9.8h4.1v13.3h-2.8V57.9z"/>
	<path d="M55.8,52h-4v-2.4h10.9V52h-4v10.9h-2.9V52z"/>
	<path d="M73.6,57.2h-6.4v3.4h7l-0.3,2.4h-9.5V49.6h9.4V52h-6.6v2.8h6.4V57.2z"/>
	<path d="M87.8,58.8c-0.5,2.5-2.4,4.3-5.7,4.3c-4.2,0-6.2-3-6.2-6.8c0-3.6,2.1-6.9,6.3-6.9c3.5,0,5.3,2.1,5.6,4.3h-2.9
		c-0.3-1-1-2-2.8-2c-2.4,0-3.3,2.1-3.3,4.6c0,2.2,0.8,4.6,3.4,4.6c1.9,0,2.5-1.3,2.7-2H87.8z"/>
	<path d="M94.1,62.9v-0.2c0-2.2,1-4,3.7-6c1.8-1.3,2.3-1.8,2.3-2.9c0-1.1-0.5-1.7-1.6-1.7c-1.2,0-1.7,0.8-1.9,1.9h-2.7
		c0.2-2.2,1.6-4,4.5-4c3.3,0,4.4,1.9,4.4,3.8c0,1.8-0.8,2.7-3.1,4.4c-1.6,1.1-2.2,1.8-2.4,2.4h6l-0.3,2.3H94.1z"/>
	<path d="M105.1,62.9v-0.2c0-2.2,1-4,3.7-6c1.8-1.3,2.3-1.8,2.3-2.9c0-1.1-0.5-1.7-1.6-1.7c-1.2,0-1.7,0.8-1.9,1.9H105
		c0.2-2.2,1.6-4,4.5-4c3.3,0,4.4,1.9,4.4,3.8c0,1.8-0.8,2.7-3.1,4.4c-1.6,1.1-2.2,1.8-2.4,2.4h6l-0.3,2.3H105.1z"/>
	<path d="M124.3,52.5h-5.1c-0.1,0.7-0.3,1.9-0.4,2.4c0.5-0.4,1.2-0.7,2.3-0.7c2.5,0,3.9,1.8,3.9,4.2c0,2.5-1.3,4.7-4.8,4.7
		c-2.5,0-4.4-1.3-4.6-3.6h2.8c0.2,0.9,0.9,1.4,1.9,1.4c1.3,0,1.9-1,1.9-2.4c0-1.3-0.5-2.3-1.9-2.3c-1.2,0-1.7,0.5-1.9,1.3l-2.5-0.3
		c0.3-1.6,0.9-5.4,1.1-7.1h7.7L124.3,52.5z"/>
	<path d="M136.5,56.5c0,3.5-1.1,6.7-4.9,6.7c-3.7,0-4.9-3.1-4.9-6.6c0-3.5,1.3-6.6,4.9-6.6C135.3,50,136.5,52.9,136.5,56.5z
		 M129.6,56.6c0,2.3,0.3,4.4,2.1,4.4c1.8,0,2-1.9,2-4.4c0-2.5-0.3-4.3-2-4.3C130.1,52.2,129.6,53.8,129.6,56.6z"/>
	<path d="M148.4,56.8v2.4h-5.4v-2.4H148.4z"/>
	<path d="M155.7,49.6h9.3V52h-6.5v3.3h6.1v2.4h-6.1v5.3h-2.8V49.6z"/>
	<path d="M175.3,60c0,1,0,2,0,2.9h-2.7c0-0.3-0.1-0.8-0.1-1.2c-0.6,1-1.5,1.4-2.7,1.4c-2,0-3.3-1.2-3.3-3.7V53h2.8v5.9
		c0,1.1,0.3,2,1.5,2c1.3,0,1.8-0.7,1.8-2.6V53h2.8V60z"/>
	<path d="M179.6,59.9c0.2,0.8,0.9,1.2,1.9,1.2c1,0,1.4-0.4,1.4-1c0-0.6-0.4-0.9-1.9-1.2c-3.3-0.8-3.8-1.8-3.8-3.2c0-1.5,1-3,4-3
		c3,0,4.1,1.7,4.1,3h-2.6c-0.1-0.4-0.3-1.1-1.6-1.1c-0.9,0-1.2,0.4-1.2,0.9c0,0.5,0.3,0.7,1.9,1.1c3.3,0.8,3.8,1.9,3.8,3.4
		c0,1.7-1.3,3.2-4.3,3.2c-3,0-4.3-1.5-4.5-3.2H179.6z"/>
	<path d="M187.5,48.9h2.8v2.5h-2.8V48.9z M187.5,53h2.8v10h-2.8V53z"/>
	<path d="M202.1,57.9c0,3-1.8,5.2-5,5.2c-3.1,0-4.9-2.2-4.9-5.2c0-3.1,1.9-5.3,5-5.3C200.2,52.7,202.1,54.8,202.1,57.9z M195,57.9
		c0,1.9,0.8,3.1,2.2,3.1c1.4,0,2.1-1.1,2.1-3c0-2.1-0.8-3.1-2.1-3.1C195.8,54.9,195,55.8,195,57.9z"/>
	<path d="M204,55.5c0-0.8,0-1.8,0-2.5h2.7c0.1,0.3,0.1,1,0.1,1.3c0.3-0.6,1.1-1.5,2.9-1.5c2,0,3.3,1.4,3.3,3.9v6.4h-2.8v-6
		c0-1.1-0.4-1.9-1.6-1.9c-1.2,0-1.8,0.7-1.8,2.4v5.6H204V55.5z"/>
	<path d="M219.6,53.5c0.2-1.6,1.3-3.5,4.5-3.5c2.9,0,4.2,1.7,4.2,3.5c0,1.5-0.9,2.3-1.6,2.6v0.1c0.8,0.3,2.1,1.1,2.1,3.1
		c0,1.8-1.1,4-4.8,4c-3.4,0-4.6-2.1-4.7-3.7h2.7c0.2,0.9,0.8,1.6,2.1,1.6c1.3,0,1.9-0.8,1.9-1.9c0-1.2-0.6-1.9-2.1-1.9h-1.1v-2.1h1
		c1.3,0,1.8-0.4,1.8-1.5c0-0.9-0.5-1.5-1.6-1.5c-1.3,0-1.6,0.7-1.7,1.3H219.6z"/>
	<path d="M237,53.3c-0.2-0.6-0.5-1.2-1.6-1.2c-1.7,0-2.1,1.6-2.2,3.3c0.5-0.7,1.4-1.2,2.9-1.2c2.3,0,4,1.7,4,4.2
		c0,2.7-1.7,4.7-4.7,4.7c-3.7,0-4.9-2.8-4.9-6.4c0-3.3,1.2-6.7,5.1-6.7c2.8,0,4,1.7,4.2,3.3H237z M237.3,58.7c0-1.2-0.4-2.3-2-2.3
		c-1.2,0-2,0.7-2,2.2c0,1,0.5,2.4,2,2.4C236.7,61,237.3,60,237.3,58.7z"/>
	<path d="M251.5,56.5c0,3.5-1.1,6.7-4.9,6.7c-3.7,0-4.9-3.1-4.9-6.6c0-3.5,1.3-6.6,4.9-6.6C250.2,50,251.5,52.9,251.5,56.5z
		 M244.6,56.6c0,2.3,0.3,4.4,2.1,4.4c1.8,0,2-1.9,2-4.4c0-2.5-0.3-4.3-2-4.3C245.1,52.2,244.6,53.8,244.6,56.6z"/>
	<path d="M258.6,49.6h5.3c3.9,0,6.4,2.6,6.4,6.5c0,3.9-2.5,6.8-6.5,6.8h-5.2V49.6z M261.5,60.6h2.2c2.5,0,3.7-1.9,3.7-4.5
		c0-2.2-1.1-4.2-3.7-4.2h-2.2V60.6z"/>
	<path d="M274.5,58.5c0,1.2,0.6,2.5,2,2.5c1.2,0,1.5-0.5,1.7-1.1h2.8c-0.4,1.2-1.4,3.2-4.6,3.2c-3.3,0-4.7-2.5-4.7-5.1
		c0-3.1,1.6-5.4,4.8-5.4c3.4,0,4.6,2.5,4.6,5c0,0.3,0,0.6,0,0.8H274.5z M278.4,56.8c0-1.2-0.5-2.1-1.8-2.1c-1.3,0-1.9,0.9-2,2.1
		H278.4z"/>
	<path d="M283.1,55.5c0-0.9,0-1.7,0-2.6h2.6c0,0.2,0.1,0.8,0.1,1.2c0.5-0.7,1.3-1.4,2.8-1.4c1.4,0,2.2,0.7,2.6,1.5
		c0.6-0.8,1.4-1.5,3.1-1.5c1.7,0,3.2,1.1,3.2,3.7v6.5h-2.7v-6.2c0-0.9-0.3-1.8-1.5-1.8c-1.2,0-1.6,0.8-1.6,2.3v5.7h-2.7v-6.1
		c0-1-0.3-1.9-1.4-1.9c-1.1,0-1.7,0.7-1.7,2.4v5.6h-2.7V55.5z"/>
	<path d="M309.2,57.9c0,3-1.8,5.2-5,5.2c-3.1,0-4.9-2.2-4.9-5.2c0-3.1,1.9-5.3,5-5.3C307.3,52.7,309.2,54.8,309.2,57.9z M302.1,57.9
		c0,1.9,0.8,3.1,2.2,3.1c1.4,0,2.1-1.1,2.1-3c0-2.1-0.8-3.1-2.1-3.1C302.9,54.9,302.1,55.8,302.1,57.9z"/>
</g>
</svg>
